<?xml version="1.0" ?><!DOCTYPE svg  PUBLIC '-//W3C//DTD SVG 1.1//EN'  'http://www.w3.org/Graphics/SVG/1.1/DTD/svg11.dtd'><svg height="512px" id="形状_1_1_" style="enable-background:new 0 0 512 512;" version="1.1" viewBox="0 0 512 512" width="512px" xml:space="preserve" xmlns="http://www.w3.org/2000/svg" xmlns:xlink="http://www.w3.org/1999/xlink"><g id="形状_1"><g><path d="M190.575,161.999L340.042,107.2    c14.016-5.141,21.208-20.674,16.075-34.688c-5.146-14.015-20.672-21.211-34.688-16.076l-149.467,54.8    c-14.015,5.143-21.21,20.665-16.075,34.688C161.034,159.938,176.559,167.135,190.575,161.999z M190.575,242.897L340.042,188.1    c14.016-5.143,21.208-20.675,16.075-34.689c-5.146-14.014-20.672-21.21-34.688-16.07l-149.467,54.794    c-14.015,5.142-21.21,20.667-16.075,34.681C161.034,240.838,176.559,248.036,190.575,242.897z M356.117,234.314    c-5.146-14.021-20.672-21.211-34.688-16.075l-149.467,54.799c-14.015,5.14-21.21,20.664-16.075,34.682    c5.146,14.023,20.672,21.22,34.688,16.084l149.467-54.8C354.058,263.858,361.25,248.33,356.117,234.314z M43.703,430.631h31.101    v-14.136H43.703v-11.848h32.438v-13.625H25.997v65.566h50.665v-13.725H43.703V430.631z M154.048,456.632h17.84v-65.613h-17.84    V456.632z M198.875,423.358c0.391-21.875,22.478-24.53,36.886-16.191l1.202-14.037c-25.141-9.553-56.354-0.937-56.482,30.229    c-0.131,31.815,30.821,40.03,56.741,31.951l-0.923-14.327C221.619,448.406,198.472,445.21,198.875,423.358z M262.217,408.466    c0-7.771,17.069-7.643,26.051-2.691l1.209-13.661c-21.57-6.558-45.367-1.404-45.367,17.814c0,23.438,30.556,17.552,30.556,28.006    c0,9.508-16.677,8.303-28.438,2.814l-1.337,14.464c18.794,5.632,47.756,5.359,47.756-18.892    C292.646,411.666,262.217,419.985,262.217,408.466z M316.052,408.466c0-7.771,17.061-7.643,26.06-2.691l1.183-13.661    c-21.553-6.558-45.353-1.404-45.353,17.814c0,23.438,30.541,17.552,30.541,28.006c0,9.508-16.668,8.303-28.423,2.814    l-1.339,14.464c18.786,5.632,47.759,5.359,47.759-18.892C346.479,411.666,316.052,419.985,316.052,408.466z M469.608,391.022    v42.314l-21.568-42.314h-22.604v65.609h16.535v-43.121l22.743,43.121h21.289v-65.609H469.608z M384.303,389.443    c-18.497,0-32.545,10.854-32.545,34.525c0,22.891,14.113,34.265,32.545,34.253c18.457,0,32.67-11.63,32.67-34.253    C416.973,400.297,402.844,389.449,384.303,389.443z M384.303,445.27c-9.999,0.016-14.284-11.298-14.284-21.301    c0-10.002,4.285-21.298,14.284-21.298c10,0.014,14.36,12.258,14.278,21.298C398.506,433.972,394.303,445.251,384.303,445.27z     M130.657,424.357c7.515-2.265,11.465-7.155,11.465-15.873c0-13.631-12.156-17.462-20.882-17.462H89.088v65.609h17.464v-24.751    c0-0.175,4.363,0,7.139,0c3.193,0,5.447,2.007,6.481,5.038l6.741,19.713h18.961c-0.103-0.067-9.241-25.498-9.298-25.657    C134.942,426.048,131.011,424.322,130.657,424.357z M115.943,418.663h-9.786v-14.677h10.044c4.532-0.07,8.047,2.985,8.071,7.265    C124.318,416.093,120.348,418.742,115.943,418.663z" style="fill-rule:evenodd;clip-rule:evenodd;fill:#00275E;"/></g></g></svg>